<svg width="134" height="134" viewBox="0 0 134 134" fill="none" xmlns="http://www.w3.org/2000/svg">
<path d="M133.639 40.2034C134.112 39.0052 134.118 37.868 133.671 36.8562C133.185 35.7221 132.316 33.697 123.31 33.35C127.124 25.8394 127.246 16.1737 127.244 14.8577C127.238 10.9373 126.653 9.47312 125.704 8.47659C125.672 8.44297 125.64 8.40934 125.608 8.37724C124.603 7.3746 123.161 6.75254 119.081 6.75254C117.768 6.75254 108.118 6.88704 100.653 10.6699C100.473 6.17938 99.6672 1.4092 97.1652 0.334723C96.6822 0.122273 96.0785 0 95.5497 0C92.5876 0 84.9211 5.97763 79.6511 12.7699C76.9152 7.42657 74.9604 7.32417 74.08 7.27679C74.0189 7.27373 73.9486 7.2722 73.8875 7.2722C68.5976 7.2722 61.5348 22.454 60.7385 32.7432C60.5383 35.3293 60.4114 38.2012 60.2769 41.2443C59.9819 47.9403 59.6472 55.5289 58.4245 59.9628C58.4199 59.9811 58.4138 59.9964 58.4092 60.0148C58.5926 54.9251 58.3832 49.4626 57.3836 44.3363C55.5251 34.8234 51.4931 26.5944 48.4363 21.3657C42.1117 10.5461 40.0147 10.5461 38.7614 10.5461C38.523 10.5461 38.2784 10.569 38.0415 10.6133C35.6373 11.0718 34.0386 14.4986 33.0161 18.0521C26.9238 13.5036 18.2256 11.483 15.4561 11.483C14.3771 11.483 13.4906 11.7168 12.7554 12.1922C10.3069 13.7649 9.44945 19.2901 9.15905 23.6476C8.97412 26.4309 9.00163 29.908 9.7368 33.2201C7.91492 32.9465 6.3162 32.8151 5.15002 32.8151C4.13668 32.8151 2.02594 32.8151 0.766525 34.5804C0.309529 35.2071 -0.181093 36.2769 0.0665106 37.8206C0.399705 39.8809 3.16308 46.1612 7.40749 51.4679C2.96439 52.8175 2.51962 54.4299 2.2873 55.266C0.541848 61.751 17.0701 69.6392 31.7521 74.4262C39.1038 76.8212 44.7666 79.7909 47.6812 81.4737C34.4054 95.0567 30.161 111.212 35.107 129.576C35.567 131.28 37.1092 132.405 38.7935 132.405C39.1236 132.405 39.4584 132.362 39.79 132.272C41.8274 131.723 43.0349 129.626 42.4862 127.589C38.2738 111.955 41.696 98.6577 52.9008 87.0662C54.6233 90.1521 57.2629 95.4159 59.4516 102.129C65.3207 120.112 72.4278 131.731 77.5663 131.731C77.8965 131.731 78.2862 131.681 78.6057 131.595C79.4341 131.375 81.0573 130.944 82.416 126.481C87.9428 130.921 94.6525 133.883 96.8886 133.885C98.0135 133.885 98.8266 133.467 99.2821 133.134C101.28 131.702 101.286 127.853 100.725 124.158C102.723 124.595 104.962 124.817 107.433 124.817C107.918 124.817 119.349 124.775 121.687 121.139C122.554 119.8 122.629 118.148 121.962 115.041C121.735 113.979 120.02 106.508 115.821 100.868C119.359 99.8437 122.78 98.245 123.278 95.8362C123.605 94.1107 123.975 92.1543 112.579 85.4828C107.338 82.4152 99.0895 78.368 89.5537 76.5033C85.8687 75.7819 81.7022 75.4166 77.172 75.4166C76.2779 75.4166 75.3914 75.435 74.5141 75.4594C79.0031 74.333 86.2844 74.0013 92.7603 73.7155C95.7973 73.581 98.6677 73.4541 101.249 73.2539C111.765 72.4454 126.985 65.2756 126.717 59.8955C126.673 59.032 126.569 57.0894 121.267 54.3642C127.717 49.3632 132.725 42.5282 133.639 40.2034Z" fill="white"/>
<path d="M104.726 28.4958C104.726 28.4958 103.658 29.3043 101.755 30.8343C100.768 31.629 100.612 33.0719 101.405 34.0577C101.859 34.6201 102.522 34.9136 103.193 34.9136C103.698 34.9136 104.205 34.7485 104.628 34.4077C106.447 32.9435 107.476 32.164 107.493 32.1518C108.501 31.3875 108.7 29.9508 107.937 28.939C107.173 27.9303 105.732 27.73 104.726 28.4958Z" fill="white"/>
<path d="M94.6739 36.7401C92.8306 38.3266 90.9996 39.9467 89.1762 41.5852C89.2205 39.9605 89.5629 38.267 90.2751 36.5108C90.7505 35.3355 90.1834 33.9997 89.0111 33.5243C87.8388 33.052 86.4999 33.616 86.0246 34.7883C84.5634 38.3969 84.1844 41.9046 84.8997 45.2152C84.915 45.2885 84.9593 45.3466 84.9822 45.4169C81.6946 48.4737 78.4559 51.6009 75.2951 54.7785C74.7281 55.3486 74.1656 55.9187 73.6108 56.4857C72.7259 57.3921 72.7442 58.844 73.649 59.7275C74.0953 60.1631 74.6731 60.3801 75.2508 60.3801C75.8469 60.3801 76.4414 60.1493 76.8908 59.6893C77.4319 59.1344 77.9836 58.575 78.543 58.0141C78.9985 57.5556 79.4662 57.1062 79.9247 56.6508C80.021 56.6783 80.1173 56.7088 80.2197 56.7226C81.2636 56.8693 82.3151 56.9412 83.3728 56.9412C86.9631 56.9412 90.6297 56.1067 94.3117 54.4499C95.4656 53.9287 95.9807 52.5714 95.461 51.4175C94.9399 50.2635 93.5826 49.75 92.4287 50.2681C89.6959 51.5 86.9951 52.174 84.3678 52.3147C88.7131 48.1497 93.1592 44.0933 97.665 40.2157C98.6249 39.3904 98.7334 37.943 97.9065 36.9831C97.0827 36.0233 95.6368 35.9132 94.6739 36.7401Z" fill="white"/>
<path d="M72.7503 92.8482C73.2241 93.0988 73.701 93.3556 74.1763 93.6139C75.02 94.0709 75.8606 94.5463 76.7013 95.017C77.3722 98.3979 78.9801 101.608 81.5127 104.562C81.9667 105.091 82.6086 105.361 83.2551 105.361C83.7839 105.361 84.3128 105.179 84.7468 104.81C85.7082 103.986 85.8183 102.538 84.9944 101.577C84.1859 100.632 83.5348 99.6542 82.9647 98.6638C85.2069 100.024 87.4307 101.416 89.6148 102.853C90.0031 103.108 90.4402 103.231 90.8727 103.231C91.6171 103.231 92.3492 102.868 92.7894 102.198C93.4848 101.141 93.1929 99.7184 92.1337 99.023C90.8085 98.1503 89.4696 97.2928 88.1201 96.4461C88.7085 96.3972 89.326 96.4018 89.9847 96.4919C91.2365 96.6738 92.3966 95.7919 92.5708 94.5386C92.745 93.2838 91.8708 92.1268 90.6175 91.9525C88.1307 91.6056 85.8687 91.9296 83.8848 92.917C83.6097 93.053 83.3774 93.2395 83.1863 93.4565C80.9258 92.1222 78.65 90.8215 76.362 89.582C75.8729 89.3176 75.3822 89.0547 74.8977 88.7979C73.7835 88.2033 72.3896 88.6313 71.7996 89.7501C71.2051 90.8689 71.6315 92.2567 72.7503 92.8482Z" fill="white"/>
<path d="M44.2882 57.5021C43.7838 56.5881 43.258 55.6802 42.7368 54.7693C43.7211 51.4602 43.7899 47.8685 42.9263 44.0734C42.6436 42.8384 41.4147 42.0681 40.1798 42.3478C38.9448 42.6306 38.173 43.8594 38.4542 45.0944C38.7049 46.1964 38.8241 47.2586 38.8821 48.3025C37.528 46.1169 36.1448 43.9465 34.7157 41.8129C34.008 40.7598 32.582 40.4801 31.5351 41.1816C30.4835 41.8862 30.2007 43.3107 30.9038 44.3623C31.7628 45.6446 32.6065 46.9407 33.4379 48.2429C32.8464 48.0075 32.2565 47.6896 31.668 47.2678C30.6394 46.528 29.2088 46.7665 28.4691 47.7951C27.7293 48.8237 27.9677 50.2558 28.9964 50.9941C31.0353 52.4568 33.1888 53.224 35.4004 53.279C35.4188 53.279 35.4371 53.279 35.457 53.279C35.8009 53.279 36.1234 53.1965 36.4153 53.0605C37.745 55.269 39.0396 57.4914 40.273 59.7213C40.5344 60.1951 40.7911 60.6689 41.0464 61.1412C41.4606 61.91 42.2508 62.3456 43.0654 62.3456C43.4322 62.3456 43.8052 62.257 44.1521 62.0705C45.2663 61.4698 45.6836 60.079 45.0814 58.9648C44.8246 58.4787 44.5587 57.9927 44.2882 57.5021Z" fill="white"/>
</svg>
