<svg width="159" height="158" viewBox="0 0 159 158" fill="none" xmlns="http://www.w3.org/2000/svg">
<path d="M79.4983 72.903C95.7388 67.7968 106.426 59.0468 106.62 52.7719C106.836 45.5844 98.3357 49.3344 98.3357 49.3344C98.3357 49.3344 106.62 42.1032 103.451 38.0064C100.12 33.7033 89.7451 42.9095 89.7451 42.9095C97.9076 34.2533 101.37 26.9721 98.5732 22.5721C95.9888 18.5097 89.5108 25.1815 89.5108 25.1815C89.5108 25.1815 95.842 16.1566 92.1389 12.3691C88.7201 8.86286 84.4327 15.6097 84.4327 15.6097C87.2451 2.73791 79.5015 3.0004 79.5015 3.0004C79.5015 3.0004 71.7515 2.73791 74.5702 15.6097C74.5702 15.6097 70.2765 8.85661 66.8547 12.3597C63.1516 16.1503 69.4828 25.1721 69.4828 25.1721C69.4828 25.1721 63.0078 18.5034 60.4204 22.5628C57.6235 26.9565 61.086 34.2439 69.2484 42.9001C69.2484 42.9001 58.8735 33.6939 55.5485 37.9939C52.3798 42.0907 60.6641 49.3219 60.6641 49.3219C60.6641 49.3219 52.161 45.572 52.3798 52.7594C52.5579 59.0468 63.2547 67.7968 79.4983 72.903Z" stroke="#F8F6F0" stroke-width="4.4" stroke-linecap="round" stroke-linejoin="round"/>
<path d="M65.0266 106.431C68.6641 89.8435 66.3016 76.2279 60.886 72.9311C54.686 69.1592 53.7298 78.3779 53.7298 78.3779C53.7298 78.3779 51.5111 67.603 46.3299 68.2967C40.8924 69.0249 43.7986 82.5935 43.7986 82.5935C40.2705 71.2124 35.5987 64.5811 30.3425 64.8061C25.4863 65.0124 28.1112 73.9405 28.1112 73.9405C28.1112 73.9405 23.3457 63.9593 18.1832 65.2686C13.3957 66.4811 17.1832 73.5623 17.1832 73.5623C7.27078 64.6999 3.63018 71.5467 3.63018 71.5467C3.63018 71.5467 -0.469785 78.1092 12.2457 82.0904C12.2457 82.0904 4.17393 82.4279 5.53954 87.1372C7.02078 92.2309 18.1113 91.2653 18.1113 91.2653C18.1113 91.2653 9.01452 93.5341 11.3082 97.7965C13.7707 102.406 21.8988 103.053 33.58 100.315C33.58 100.315 20.3113 104.69 22.4269 109.712C24.4456 114.5 34.9268 110.946 34.9268 110.946C34.9268 110.946 27.3894 116.431 33.8081 119.828C39.408 122.796 52.4423 117.931 65.0266 106.431Z" stroke="#F8F6F0" stroke-width="4.4" stroke-linecap="round" stroke-linejoin="round"/>
<path d="M79.4983 72.8936V155.634" stroke="#F8F6F0" stroke-width="4.4" stroke-linecap="round" stroke-linejoin="round"/>
<path d="M93.967 106.431C90.3295 89.8435 92.692 76.2279 98.1076 72.9311C104.308 69.1592 105.267 78.3779 105.267 78.3779C105.267 78.3779 107.483 67.603 112.664 68.2967C118.101 69.0249 115.198 82.5935 115.198 82.5935C118.723 71.2124 123.395 64.5811 128.651 64.8061C133.507 65.0124 130.882 73.9405 130.882 73.9405C130.882 73.9405 135.651 63.9593 140.826 65.2686C145.613 66.4811 141.826 73.5623 141.826 73.5623C151.726 64.6999 155.37 71.5467 155.37 71.5467C155.37 71.5467 159.47 78.1092 146.757 82.106C146.757 82.106 154.832 82.4435 153.463 87.1529C151.982 92.2466 140.895 91.2809 140.895 91.2809C140.895 91.2809 149.985 93.5497 147.71 97.8121C145.248 102.421 137.117 103.068 125.439 100.331C125.439 100.331 138.704 104.706 136.589 109.728C134.573 114.515 124.089 110.962 124.089 110.962C124.089 110.962 131.62 116.446 125.201 119.843C119.586 122.796 106.551 117.931 93.967 106.431Z" stroke="#F8F6F0" stroke-width="4.4" stroke-linecap="round" stroke-linejoin="round"/>
<path d="M65.0266 106.431C65.0266 106.431 75.4452 110.059 79.4983 123.246" stroke="#F8F6F0" stroke-width="4.4" stroke-linecap="round" stroke-linejoin="round"/>
<path d="M93.967 106.431C93.967 106.431 83.5483 110.059 79.4983 123.246" stroke="#F8F6F0" stroke-width="4.4" stroke-linecap="round" stroke-linejoin="round"/>
</svg>
