<svg width="365" height="456" viewBox="0 0 365 456" fill="none" xmlns="http://www.w3.org/2000/svg">
<path d="M91.3008 91.9619V274.14H182.39C194.873 274.14 206.617 271.812 217.619 267.157C228.622 262.291 238.249 255.731 246.501 247.479C254.753 239.228 261.206 229.6 265.861 218.598C270.728 207.383 273.161 195.535 273.161 183.051C273.161 170.567 270.728 158.824 265.861 147.821C261.206 136.607 254.753 126.874 246.501 118.622C238.249 110.37 228.622 103.917 217.619 99.2617C206.617 94.3952 194.873 91.9619 182.39 91.9619H91.3008ZM91.3008 456H0.211914V0.873047H182.39C199.105 0.873047 215.186 3.09473 230.632 7.53809C246.078 11.7699 260.466 17.9059 273.796 25.9463C287.338 33.7751 299.61 43.2965 310.612 54.5107C321.826 65.5133 331.348 77.7855 339.177 91.3271C347.217 104.869 353.353 119.363 357.585 134.809C362.028 150.255 364.25 166.335 364.25 183.051C364.25 208.018 359.489 231.61 349.968 253.827C340.446 275.832 327.434 295.087 310.93 311.591C294.426 328.095 275.065 341.107 252.849 350.629C230.843 360.15 207.357 364.911 182.39 364.911H91.3008V456Z" fill="#03C095"/>
</svg>
